# xmcd CD database file
#
# Track frame offsets:
#	182
#	14087
#	27927
#
# Disc length: 631 seconds
#
# Revision: 0
# Processed by: cddbd v1.4PL0 Copyright (c) Steve Scherf et al.
# Submitted via: CDex 1.51
#
DISCID=1e027503
DTITLE=Joelle Ursull - White and Black Blues
DYEAR=1990
DGENRE=Blues
TTITLE0=White and Black Blues
TTITLE1=White and Black Blues (instrumental)
TTITLE2=Position Feelings
EXTD=YEAR: 1990
EXTT0=
EXTT1=
EXTT2=
PLAYORDER=
